<svg width="687" height="496" viewBox="0 0 687 496" fill="none" xmlns="http://www.w3.org/2000/svg">
<path d="M103.461 448.427C97.8663 453.251 91.4509 457.031 84.5203 459.587C77.5676 462.172 70.2079 463.489 62.7904 463.477C57.1739 463.495 51.5818 462.742 46.1705 461.237C40.9168 459.783 35.8745 457.652 31.1705 454.897C26.5245 452.166 22.2465 448.853 18.4405 445.037C14.6253 441.237 11.3147 436.962 8.5904 432.318C5.8351 427.614 3.70377 422.571 2.25031 417.318C0.739416 411.907 -0.017725 406.315 0.0003149 400.698C-0.0163166 395.067 0.740764 389.462 2.25031 384.037C3.6977 378.781 5.82936 373.738 8.5904 369.037C11.3146 364.39 14.6251 360.111 18.4405 356.307C22.2441 352.492 26.5225 349.182 31.1705 346.458C35.8741 343.7 40.9164 341.565 46.1705 340.107C51.5818 338.603 57.1739 337.85 62.7904 337.867C70.2043 337.857 77.5614 339.16 84.5203 341.717C91.4681 344.26 97.8886 348.06 103.461 352.927L90.6104 374.068C87.0898 370.255 82.7933 367.241 78.0103 365.227C73.1976 363.181 68.0203 362.13 62.7904 362.138C57.617 362.086 52.4891 363.108 47.7303 365.138C43.1636 367.092 39.005 369.887 35.4705 373.378C31.9408 376.894 29.1256 381.061 27.1805 385.647C25.1605 390.388 24.1392 395.494 24.1805 400.647C24.1344 405.778 25.1561 410.863 27.1805 415.578C29.1486 420.137 31.9614 424.283 35.4705 427.797C38.9952 431.31 43.1556 434.12 47.7303 436.078C52.4891 438.107 57.617 439.129 62.7904 439.078C68.0208 439.09 73.1991 438.039 78.0103 435.987C82.7933 433.974 87.0898 430.96 90.6104 427.147L103.461 448.427Z" fill="black"/>
<path d="M138.14 460.858H115.05V334.258H138.14V374.258C140.695 372.274 143.589 370.77 146.68 369.818C149.6 368.946 152.632 368.505 155.68 368.508C161.089 368.469 166.448 369.548 171.42 371.678C176.216 373.72 180.567 376.679 184.23 380.388C187.89 384.122 190.815 388.511 192.85 393.328C194.977 398.311 196.056 403.679 196.02 409.098V460.858H172.77V409.098H172.94C172.954 406.788 172.491 404.5 171.58 402.378C170.711 400.307 169.447 398.426 167.86 396.838C166.283 395.26 164.42 393.997 162.37 393.118C160.257 392.21 157.98 391.747 155.68 391.758C153.329 391.748 150.999 392.21 148.83 393.118C146.745 393.981 144.849 395.245 143.25 396.838C141.665 398.428 140.402 400.309 139.53 402.378C138.628 404.503 138.169 406.789 138.18 409.098L138.14 460.858Z" fill="black"/>
<path d="M299.921 414.767C299.975 421.246 298.741 427.67 296.291 433.667C293.993 439.302 290.632 444.443 286.391 448.807C282.199 453.08 277.217 456.497 271.721 458.867C266.022 461.337 259.871 462.591 253.661 462.547C247.47 462.589 241.339 461.335 235.661 458.867C230.153 456.49 225.156 453.075 220.941 448.807C216.677 444.455 213.304 439.312 211.011 433.667C208.552 427.672 207.315 421.247 207.371 414.767C207.305 408.219 208.543 401.723 211.011 395.657C213.296 389.994 216.67 384.833 220.941 380.467C225.157 376.216 230.155 372.82 235.661 370.467C241.346 368.03 247.475 366.794 253.661 366.837C259.846 366.791 265.981 367.952 271.721 370.257C277.22 372.472 282.211 375.783 286.391 379.987C290.653 384.331 294.017 389.472 296.291 395.117C298.776 401.366 300.009 408.043 299.921 414.767ZM276.661 414.767C276.707 411.319 276.093 407.894 274.851 404.677C273.715 401.791 272.034 399.149 269.901 396.897C267.834 394.741 265.341 393.038 262.581 391.897C259.751 390.738 256.719 390.15 253.661 390.167C250.602 390.15 247.571 390.738 244.74 391.897C241.99 393.029 239.511 394.733 237.471 396.897C235.359 399.151 233.705 401.793 232.601 404.677C231.383 407.907 230.783 411.336 230.831 414.787C230.8 418.11 231.4 421.409 232.601 424.507C233.719 427.384 235.372 430.024 237.471 432.287C239.524 434.489 241.995 436.26 244.74 437.497C247.543 438.764 250.585 439.412 253.661 439.397C256.724 439.418 259.76 438.812 262.581 437.617C265.333 436.462 267.823 434.761 269.901 432.617C272.047 430.375 273.729 427.731 274.851 424.837C276.09 421.627 276.705 418.209 276.661 414.767Z" fill="black"/>
<path d="M335.95 495.358H312.69V370.278H318.27L327.49 381.188C329.639 379.168 331.928 377.304 334.34 375.608C336.783 373.878 339.373 372.365 342.08 371.088C344.752 369.818 347.542 368.813 350.41 368.088C353.255 367.351 356.182 366.978 359.12 366.978C365.287 366.936 371.402 368.101 377.12 370.408C382.624 372.618 387.63 375.91 391.84 380.088C396.131 384.403 399.508 389.538 401.77 395.188C404.262 401.411 405.499 408.065 405.41 414.768C405.519 421.634 404.282 428.456 401.77 434.848C399.533 440.522 396.153 445.675 391.84 449.988C387.638 454.136 382.628 457.377 377.12 459.508C371.38 461.725 365.274 462.841 359.12 462.798C357.085 462.799 355.056 462.574 353.07 462.128C351.055 461.666 349.077 461.058 347.15 460.308C345.21 459.548 343.294 458.688 341.4 457.728C339.51 456.728 337.7 455.788 335.95 454.728V495.358ZM382.21 414.768C382.265 411.243 381.647 407.741 380.39 404.448C379.278 401.561 377.594 398.929 375.44 396.708C373.351 394.594 370.845 392.939 368.08 391.848C365.218 390.707 362.161 390.133 359.08 390.158C356.025 390.136 352.996 390.71 350.16 391.848C347.419 392.942 344.932 394.585 342.85 396.678C340.681 398.896 338.981 401.528 337.85 404.418C336.597 407.712 335.983 411.214 336.04 414.738C335.998 418.176 336.612 421.59 337.85 424.798C338.983 427.698 340.683 430.343 342.85 432.578C344.928 434.722 347.418 436.423 350.17 437.578C352.991 438.773 356.027 439.378 359.09 439.358C362.18 439.382 365.242 438.776 368.09 437.578C370.861 436.433 373.366 434.731 375.45 432.578C377.604 430.341 379.287 427.696 380.4 424.798C381.635 421.6 382.249 418.196 382.21 414.768Z" fill="black"/>
<path d="M462.85 460.858C457.444 460.892 452.09 459.813 447.12 457.688C442.304 455.633 437.926 452.677 434.22 448.978C430.52 445.273 427.563 440.895 425.51 436.078C423.386 431.107 422.307 425.753 422.34 420.348V393.448H411.09V370.448H422.34V334.258H445.34V370.448H480.34V393.448H445.34V420.348C445.322 422.687 445.785 425.005 446.7 427.158C447.571 429.227 448.835 431.108 450.42 432.698C452.023 434.295 453.917 435.572 456 436.458C458.161 437.394 460.494 437.871 462.85 437.858H480.36V460.858H462.85Z" fill="black"/>
<path d="M580.85 414.767C580.904 421.246 579.671 427.67 577.22 433.667C574.922 439.302 571.561 444.443 567.32 448.807C563.129 453.08 558.146 456.497 552.65 458.867C546.952 461.337 540.8 462.591 534.59 462.547C528.399 462.589 522.268 461.335 516.59 458.867C511.086 456.49 506.092 453.075 501.88 448.807C497.616 444.453 494.241 439.311 491.94 433.667C489.486 427.671 488.249 421.246 488.3 414.767C488.239 408.219 489.477 401.724 491.94 395.657C494.233 389.995 497.609 384.835 501.88 380.467C506.092 376.216 511.087 372.82 516.59 370.467C522.276 368.03 528.404 366.794 534.59 366.837C540.775 366.791 546.91 367.952 552.65 370.257C558.149 372.472 563.14 375.783 567.32 379.987C571.582 384.331 574.947 389.472 577.22 395.117C579.705 401.366 580.938 408.043 580.85 414.767ZM557.6 414.767C557.646 411.312 557.028 407.88 555.78 404.657C554.637 401.763 552.938 399.12 550.78 396.877C548.717 394.721 546.228 393.018 543.47 391.877C540.637 390.718 537.602 390.13 534.54 390.147C531.482 390.13 528.45 390.718 525.62 391.877C522.87 393.01 520.392 394.715 518.35 396.877C516.238 399.129 514.587 401.772 513.49 404.657C512.264 407.885 511.661 411.315 511.71 414.767C511.677 418.091 512.281 421.391 513.49 424.487C514.601 427.366 516.251 430.006 518.35 432.267C520.406 434.467 522.876 436.238 525.62 437.477C528.423 438.743 531.465 439.391 534.54 439.377C537.607 439.398 540.646 438.792 543.47 437.597C546.22 436.442 548.706 434.741 550.78 432.597C552.951 430.365 554.651 427.719 555.78 424.817C557.024 421.614 557.645 418.203 557.61 414.767H557.6Z" fill="black"/>
<path d="M616.901 495.358H593.641V370.278H599.221L608.441 381.188C610.587 379.166 612.876 377.301 615.291 375.608C617.733 373.878 620.323 372.365 623.031 371.088C625.7 369.819 628.486 368.814 631.351 368.088C634.199 367.352 637.129 366.979 640.071 366.978C646.237 366.936 652.352 368.101 658.071 370.408C663.572 372.619 668.573 375.91 672.781 380.088C677.074 384.403 680.455 389.538 682.721 395.188C685.207 401.412 686.444 408.065 686.361 414.768C686.464 421.634 685.228 428.454 682.721 434.848C680.48 440.522 677.096 445.676 672.781 449.988C668.583 454.137 663.575 457.378 658.071 459.508C652.33 461.725 646.224 462.841 640.071 462.798C638.052 462.795 636.04 462.571 634.071 462.128C632.055 461.667 630.077 461.059 628.151 460.308C626.211 459.548 624.294 458.688 622.401 457.728C620.511 456.728 618.691 455.788 616.951 454.728L616.901 495.358ZM663.161 414.768C663.215 411.243 662.597 407.741 661.341 404.448C660.221 401.564 658.539 398.933 656.391 396.708C654.3 394.596 651.794 392.941 649.031 391.848C646.168 390.709 643.111 390.135 640.031 390.158C636.976 390.136 633.946 390.71 631.111 391.848C628.385 392.943 625.914 394.587 623.851 396.678C621.697 398.898 620.013 401.531 618.901 404.418C617.644 407.711 617.026 411.213 617.081 414.738C617.041 418.176 617.659 421.591 618.901 424.798C620.014 427.696 621.697 430.341 623.851 432.578C625.924 434.726 628.415 436.427 631.171 437.578C633.992 438.773 637.027 439.378 640.091 439.358C643.18 439.38 646.242 438.774 649.091 437.578C651.859 436.43 654.364 434.728 656.451 432.578C658.597 430.336 660.279 427.692 661.401 424.798C662.618 421.596 663.215 418.192 663.161 414.768Z" fill="black"/>
<path d="M307.48 123.34V274.97C298.93 264.88 288.921 252.53 278.931 238.97V140.97L307.48 123.34Z" fill="url(#paint0_linear_2129_3443)"/>
<path d="M360.21 80.5078V296.128C358.21 298.298 356.69 299.908 355.78 300.868L343.18 314.128L330.58 300.868C328.84 299.038 324.93 294.868 319.58 288.868V104.318L360.21 80.5078Z" fill="url(#paint1_linear_2129_3443)"/>
<path d="M407.431 128.83V238.93C394.731 256.19 382.031 271.46 372.291 282.63V104.32L407.431 128.83Z" fill="url(#paint2_linear_2129_3443)"/>
<path d="M343.181 0C278.861 0 226.521 56.07 226.521 125C226.521 159.15 252.701 203.3 278.931 239C288.931 252.6 298.93 265 307.48 275C311.99 280.32 316.091 285 319.581 288.91C324.931 294.91 328.841 299.07 330.581 300.91L343.181 314.17L355.781 300.91C356.691 299.91 358.201 298.34 360.211 296.17C363.211 292.88 367.391 288.29 372.291 282.67C382.031 271.5 394.731 256.23 407.431 238.97C433.661 203.32 459.841 159.17 459.841 125.02C459.851 56.07 407.501 0 343.181 0ZM372.291 227.68C368.221 232.96 364.161 238.08 360.211 242.94C354.211 250.36 348.361 257.18 343.151 263.1C335.561 254.51 327.531 244.9 319.581 234.75C315.491 229.56 311.44 224.25 307.48 218.85C297.093 204.854 287.559 190.244 278.931 175.1C268.271 155.98 261.281 138.23 261.281 124.95C261.281 75.19 298.011 34.72 343.181 34.72C388.351 34.72 425.081 75.19 425.081 124.95C425.081 138.84 417.961 156.72 407.431 175.5C397.671 192.97 384.961 211.2 372.291 227.68Z" fill="url(#paint3_linear_2129_3443)"/>
<defs>
<linearGradient id="paint0_linear_2129_3443" x1="293.206" y1="123.34" x2="291.997" y2="265.669" gradientUnits="userSpaceOnUse">
<stop offset="0.0576923" stop-color="#E1665A"/>
<stop offset="0.326923" stop-color="#F19066"/>
<stop offset="0.706731" stop-color="#F9B26D"/>
<stop offset="0.942308" stop-color="#FDD18E"/>
</linearGradient>
<linearGradient id="paint1_linear_2129_3443" x1="339.895" y1="80.5078" x2="338.265" y2="257.665" gradientUnits="userSpaceOnUse">
<stop offset="0.0576923" stop-color="#E1665A"/>
<stop offset="0.326923" stop-color="#F19066"/>
<stop offset="0.706731" stop-color="#F9B26D"/>
<stop offset="0.942308" stop-color="#FDD18E"/>
</linearGradient>
<linearGradient id="paint2_linear_2129_3443" x1="389.861" y1="104.32" x2="388.692" y2="248.67" gradientUnits="userSpaceOnUse">
<stop offset="0.0576923" stop-color="#E1665A"/>
<stop offset="0.326923" stop-color="#F19066"/>
<stop offset="0.706731" stop-color="#F9B26D"/>
<stop offset="0.942308" stop-color="#FDD18E"/>
</linearGradient>
<linearGradient id="paint3_linear_2129_3443" x1="343.181" y1="-3.20988e-08" x2="342.455" y2="313.678" gradientUnits="userSpaceOnUse">
<stop offset="0.0576923" stop-color="#E1665A"/>
<stop offset="0.326923" stop-color="#F19066"/>
<stop offset="0.706731" stop-color="#F9B26D"/>
<stop offset="0.942308" stop-color="#FDD18E"/>
</linearGradient>
</defs>
</svg>
